<svg width="16" height="22" viewBox="0 0 16 22" fill="none" xmlns="http://www.w3.org/2000/svg">
<path d="M10.3296 4C9.77959 4 9.30892 3.804 8.91759 3.412C8.52559 3.02067 8.32959 2.55 8.32959 2C8.32959 1.45 8.52559 0.979 8.91759 0.587C9.30892 0.195667 9.77959 0 10.3296 0C10.8796 0 11.3506 0.195667 11.7426 0.587C12.1339 0.979 12.3296 1.45 12.3296 2C12.3296 2.55 12.1339 3.02067 11.7426 3.412C11.3506 3.804 10.8796 4 10.3296 4ZM10.8296 21.5C10.5463 21.5 10.3089 21.404 10.1176 21.212C9.92559 21.0207 9.82959 20.7833 9.82959 20.5V15.5L7.72959 13.5L7.15459 16C7.02125 16.5333 6.72959 16.946 6.27959 17.238C5.82959 17.5293 5.33792 17.6167 4.80459 17.5L0.829586 16.7C0.546252 16.65 0.325586 16.5083 0.167586 16.275C0.00891913 16.0417 -0.0370809 15.7833 0.0295858 15.5C0.0795858 15.2167 0.221252 14.9957 0.454586 14.837C0.687919 14.679 0.946253 14.6333 1.22959 14.7L5.02959 15.5L6.62959 7.4L4.82959 8.1V10.5C4.82959 10.7833 4.73392 11.0207 4.54259 11.212C4.35059 11.404 4.11292 11.5 3.82959 11.5C3.54625 11.5 3.30859 11.404 3.11659 11.212C2.92525 11.0207 2.82959 10.7833 2.82959 10.5V8.125C2.82959 7.725 2.93792 7.354 3.15459 7.012C3.37125 6.67067 3.66292 6.425 4.02959 6.275L6.77959 5.1C7.36292 4.85 7.79225 4.68733 8.06759 4.612C8.34225 4.53733 8.59625 4.5 8.82959 4.5C9.17959 4.5 9.50459 4.59167 9.80459 4.775C10.1046 4.95833 10.3463 5.2 10.5296 5.5L11.5296 7.1C11.8963 7.68333 12.3756 8.18333 12.9676 8.6C13.5589 9.01667 14.2296 9.29167 14.9796 9.425C15.2296 9.45833 15.4339 9.56667 15.5926 9.75C15.7506 9.93333 15.8296 10.1417 15.8296 10.375C15.8296 10.6917 15.7173 10.9583 15.4926 11.175C15.2673 11.3917 15.0046 11.475 14.7046 11.425C13.8213 11.2917 13.0046 11.0123 12.2546 10.587C11.5046 10.1623 10.8629 9.63333 10.3296 9L9.72959 12L11.2046 13.4C11.4046 13.6 11.5589 13.8207 11.6676 14.062C11.7756 14.304 11.8296 14.5667 11.8296 14.85V20.5C11.8296 20.7833 11.7339 21.0207 11.5426 21.212C11.3506 21.404 11.1129 21.5 10.8296 21.5Z" fill="#717171"/>
</svg>
